<svg width="61" height="49" viewBox="0 0 61 49" fill="none" xmlns="http://www.w3.org/2000/svg">
<path d="M1 28.7297C5.64445 23.8603 14.5195 11.9686 12.864 3.35744C10.7947 -7.40656 10.9327 21.7002 14.9333 30.1576C18.934 38.615 17.9683 57.1774 14.9333 42.5691C11.8984 27.9609 18.6581 26.8625 19.6238 16.3182C20.5894 5.77385 16.5888 29.1691 20.5894 31.3658C23.79 33.1232 25.5098 40.0063 25.9696 43.2282C24.6821 39.6768 22.576 31.4976 24.4522 27.192C26.7974 21.81 22.9347 17.1969 24.4522 22.6887C25.9696 28.1805 26.1076 31.1461 26.7974 28.7297C27.4871 26.3133 28.039 24.1166 28.3149 25.6543C28.5908 27.192 30.936 28.7297 31.0739 27.192C31.2119 25.6543 31.4878 21.81 30.798 22.2494C30.1083 22.6887 28.1769 29.0592 29.0046 29.6084C29.6668 30.0478 32.1316 25.9106 33.2812 23.7871C23.6244 24.1166 5.63525 25.2589 10.9327 27.192C17.5545 29.6084 39.903 19.7231 53.9743 22.6887C68.0456 25.6543 53.2845 25.3932 51.6291 23.7871C49.9736 22.1809 51.2152 15.769 53.9743 14.2313C56.7333 12.6936 60.872 1.27054 56.5954 7.75091C52.3188 14.2313 50.8013 25.3248 51.6291 27.7412C52.4568 30.1576 54.664 40.5921 51.6291 40.1527C48.5941 39.7134 54.3881 22.469 55.4918 21.151C56.5954 19.8329 56.4574 15.5493 55.2159 16.7575C53.9743 17.9657 53.8363 25.874 56.5954 18.7346C59.3545 11.5952 53.8363 24.3363 56.5954 30.7068C59.3545 37.0773 49.9736 30.8166 56.8713 26.7527" stroke="white"/>
</svg>
